<?xml version="1.0" encoding="UTF-8" standalone="no"?>
<svg width="452px" height="246px" viewBox="0 0 452 246" version="1.1" xmlns="http://www.w3.org/2000/svg" xmlns:xlink="http://www.w3.org/1999/xlink">
    <!-- Generator: Sketch 3.6.1 (26313) - http://www.bohemiancoding.com/sketch -->
    <title>Group 6</title>
    <desc>Created with Sketch.</desc>
    <defs></defs>
    <g id="Chrome" stroke="none" stroke-width="1" fill="none" fill-rule="evenodd">
        <g id="Chrome-Landing-Page-" transform="translate(-473.000000, -254.000000)">
            <g id="Group-6" transform="translate(473.000000, 254.000000)">
                <rect id="Rectangle-34" stroke="#555555" stroke-width="2" fill="#E5E5E5" x="51.1353535" y="0" width="350.251847" height="245.474836" rx="8"></rect>
                <rect id="Rectangle-34" stroke="#0095DA" stroke-width="4" fill="#FFFFFF" x="72.1373737" y="161.139535" width="18.971975" height="19.9448305" rx="6"></rect>
                <rect id="Rectangle-34" stroke="#0095DA" stroke-width="4" fill="#FFFFFF" x="236.50101" y="193.55814" width="145.938269" height="29.9172457" rx="8"></rect>
                <rect id="Rectangle-34" stroke-opacity="0.195652174" stroke="#4A4A4A" stroke-width="2" fill-opacity="0.300000012" fill="#FFFFFF" x="101.357576" y="193.55814" width="127.695986" height="29.9172457" rx="8"></rect>
                <text id="Remember-my-choice" font-family=".HelveticaNeueDeskInterface-Regular, .Helvetica Neue DeskInterface" font-size="14.610101" font-weight="normal" fill="#555555">
                    <tspan x="97.9206334" y="176.093023">Remember my choice</tspan>
                </text>
                <text id="Launch-Application" font-family=".HelveticaNeueDeskInterface-Bold, .Helvetica Neue DeskInterface" font-size="12.7838384" font-weight="bold" fill="#555555">
                    <tspan x="250.742031" y="212.232558">Launch Application</tspan>
                </text>
                <rect id="Rectangle-37" fill="#D8D8D8" x="70.3111111" y="21.9302326" width="312.307897" height="19.9448305" rx="8"></rect>
                <rect id="Rectangle-37" fill="#D8D8D8" x="70.3111111" y="52.4418605" width="312.307897" height="19.9448305" rx="8"></rect>
                <rect id="Rectangle-37" fill="#D8D8D8" x="70.3111111" y="82.9534884" width="312.307897" height="19.9448305" rx="8"></rect>
                <rect id="Rectangle-37" fill="#D8D8D8" x="70.3111111" y="113.465116" width="312.307897" height="19.9448305" rx="8"></rect>
                <path d="M0,180.491916 L0,162.0525 L40.7681172,162.0525 L40.7681172,144.930233 L65.9951046,171.27216 L40.7681172,197.614184 L40.7681172,180.491916 L0,180.491916 Z" id="Page-1" fill="#0095DA"></path>
                <path d="M385.341414,216.724474 L385.341414,198.285058 L426.109531,198.285058 L426.109531,181.162791 L451.336519,207.504719 L426.109531,233.846742 L426.109531,216.724474 L385.341414,216.724474 Z" id="Page-1" fill="#0095DA" transform="translate(418.338966, 207.504766) scale(-1, 1) translate(-418.338966, -207.504766) "></path>
            </g>
        </g>
    </g>
</svg>