<?xml version="1.0" encoding="UTF-8" standalone="no"?>
<svg width="401px" height="283px" viewBox="0 0 401 283" version="1.1" xmlns="http://www.w3.org/2000/svg" xmlns:xlink="http://www.w3.org/1999/xlink">
    <!-- Generator: Sketch 3.6.1 (26313) - http://www.bohemiancoding.com/sketch -->
    <title>Group 2</title>
    <desc>Created with Sketch.</desc>
    <defs></defs>
    <g id="Firefox" stroke="none" stroke-width="1" fill="none" fill-rule="evenodd">
        <g id="Firefox/Win-Landing-Page-" transform="translate(-494.000000, -236.000000)">
            <g id="Group-2" transform="translate(494.000000, 236.000000)">
                <rect id="Rectangle-34" stroke="#555555" stroke-width="2" fill="#E5E5E5" x="47.5454545" y="0" width="353.060835" height="248.004283" rx="8"></rect>
                <rect id="Rectangle-34" stroke="#0095DA" stroke-width="4" fill="#FFFFFF" x="68.7159091" y="168.655949" width="19.1241286" height="18.7654404" rx="6"></rect>
                <text id="Remember-my-choice" font-family=".HelveticaNeueDeskInterface-Regular, .Helvetica Neue DeskInterface" font-size="14.3536977" font-weight="normal" fill="#555555">
                    <tspan x="96.5662302" y="183.553055">Remember my choice</tspan>
                </text>
                <path d="M66.875,50.1640107 C66.875,45.7457197 70.4647309,42.1639871 74.8737983,42.1639871 L373.68878,42.1639871 C378.106394,42.1639871 381.687578,45.7543585 381.687578,50.1640107 L381.687578,149.890652 C381.687578,154.308943 378.097847,157.890675 373.68878,157.890675 L74.8737983,157.890675 C70.456184,157.890675 66.875,154.300304 66.875,149.890652 L66.875,50.1640107 Z" id="Rectangle-37" fill="#FFFFFF"></path>
                <rect id="Rectangle-37" fill="#0095DA" x="66.875" y="36.6784566" width="314.812578" height="37.6784566"></rect>
                <rect id="Rectangle-37" fill="#D8D8D8" x="66.875" y="73.8133377" width="314.812578" height="18.7654404"></rect>
                <path d="M0.457069143,186.323769 L0.457069143,171.623743 L38.7988128,171.623743 L38.7988128,157.973756 L62.5243795,178.973718 L38.7988128,199.973756 L38.7988128,186.323769 L0.457069143,186.323769 Z" id="Page-1" fill="#0095DA"></path>
                <path d="M226.608939,264.657816 L226.608939,249.95779 L258.020899,249.95779 L258.020899,236.307803 L277.458371,257.307765 L258.020899,278.307803 L258.020899,264.657816 L226.608939,264.657816 Z" id="Page-1" fill="#0095DA" transform="translate(252.033655, 257.307803) rotate(-90.000000) translate(-252.033655, -257.307803) "></path>
                <rect id="Rectangle-34" stroke="#0095DA" stroke-width="2" fill="#E5E5E5" x="211.386364" y="199.157556" width="83.5973178" height="28.1481607" rx="8"></rect>
                <text id="OK" font-family=".HelveticaNeueDeskInterface-Bold, .Helvetica Neue DeskInterface" font-size="12.5594855" font-weight="bold" fill="#000000">
                    <tspan x="241.853358" y="217.437299">OK</tspan>
                </text>
                <rect id="Rectangle-34" stroke-opacity="0.195652174" stroke="#4A4A4A" stroke-width="2" fill-opacity="0.300000012" fill="#FFFFFF" x="302.511364" y="199.157556" width="83.5973178" height="28.1481607" rx="8"></rect>
            </g>
        </g>
    </g>
</svg>