<?xml version="1.0" encoding="UTF-8" standalone="no"?>
<svg width="385px" height="231px" viewBox="0 0 385 231" version="1.1" xmlns="http://www.w3.org/2000/svg" xmlns:xlink="http://www.w3.org/1999/xlink">
    <!-- Generator: Sketch 3.6.1 (26313) - http://www.bohemiancoding.com/sketch -->
    <title>Group 2</title>
    <desc>Created with Sketch.</desc>
    <defs></defs>
    <g id="Firefox" stroke="none" stroke-width="1" fill="none" fill-rule="evenodd">
        <g id="Firefox/Mac-Landing-Page-" transform="translate(-518.000000, -261.000000)">
            <g id="Group-2" transform="translate(518.000000, 261.000000)">
                <rect id="Rectangle-34" stroke="#555555" stroke-width="2" fill="#E5E5E5" x="44.0899796" y="0" width="301.994524" height="230.540684" rx="8"></rect>
                <rect id="Rectangle-34" stroke="#0095DA" stroke-width="4" fill="#FFFFFF" x="62.198364" y="156.779783" width="16.3580367" height="17.4440434" rx="6"></rect>
                <rect id="Rectangle-34" stroke="#0095DA" stroke-width="4" fill="#0095DA" x="258.241309" y="185.133574" width="71.5058983" height="26.1660651" rx="8"></rect>
                <text id="Remember-my-choice" font-family=".HelveticaNeueDeskInterface-Regular, .Helvetica Neue DeskInterface" font-size="12.3931348" font-weight="normal" fill="#555555">
                    <tspan x="85.4450986" y="169.613718">Remember my choice</tspan>
                </text>
                <path d="M60.6237219,47.1928633 C60.6237219,42.7757355 64.2016217,39.1949458 68.6278693,39.1949458 L321.898025,39.1949458 C326.318594,39.1949458 329.902173,42.7742457 329.902173,47.1928633 L329.902173,138.774646 C329.902173,143.191774 326.324273,146.772563 321.898025,146.772563 L68.6278693,146.772563 C64.2073008,146.772563 60.6237219,143.193263 60.6237219,138.774646 L60.6237219,47.1928633 Z" id="Rectangle-37" fill="#FFFFFF"></path>
                <rect id="Rectangle-37" fill="#005DDA" x="60.6237219" y="35.0252708" width="269.278451" height="35.0252708"></rect>
                <rect id="Rectangle-37" fill-opacity="0.550554801" fill="#555555" x="60.6237219" y="69.5114076" width="269.278451" height="19.6396761"></rect>
                <text id="OK" font-family=".HelveticaNeueDeskInterface-Bold, .Helvetica Neue DeskInterface" font-size="10.8439929" font-weight="bold" fill="#FFFFFF">
                    <tspan x="286.13145" y="202.007629">OK</tspan>
                </text>
                <path d="M0,173.705662 L0,157.578276 L35.1511299,157.578276 L35.1511299,142.602888 L56.9023701,165.641927 L35.1511299,188.68105 L35.1511299,173.705662 L0,173.705662 Z" id="Page-1" fill="#0095DA"></path>
                <path d="M337.760736,207.441349 L337.760736,192.84746 L366.942535,192.84746 L366.942535,179.296029 L385,200.144367 L366.942535,220.99278 L366.942535,207.441349 L337.760736,207.441349 Z" id="Page-1" fill="#0095DA" transform="translate(361.380368, 200.144404) scale(-1, 1) translate(-361.380368, -200.144404) "></path>
                <rect id="Rectangle-34" stroke-opacity="0.195652174" stroke="#4A4A4A" stroke-width="2" fill-opacity="0.300000012" fill="#FFFFFF" x="178.721881" y="185.133574" width="71.5058983" height="26.1660651" rx="8"></rect>
            </g>
        </g>
    </g>
</svg>