<?xml version="1.0" encoding="UTF-8" standalone="no"?>
<svg width="100px" height="80px" viewBox="0 0 100 80" version="1.1" xmlns="http://www.w3.org/2000/svg" xmlns:xlink="http://www.w3.org/1999/xlink">
    <!-- Generator: Sketch 39 (31667) - http://www.bohemiancoding.com/sketch -->
    <title>modal</title>
    <desc>Created with Sketch.</desc>
    <defs></defs>
    <g id="Downloads" stroke="none" stroke-width="1" fill="none" fill-rule="evenodd">
        <g id="02.-Joining-Screen" transform="translate(-123.000000, -334.000000)">
            <g id="modal-note" transform="translate(123.000000, 260.000000)">
                <g id="modal" transform="translate(0.000000, 74.000000)">
                    <rect id="Rectangle-24" fill="#D8D8D8" x="0" y="0" width="100" height="80" rx="4"></rect>
                    <rect id="Rectangle-24-Copy" fill="#C0C0C0" x="6" y="6" width="88" height="8" rx="4"></rect>
                    <rect id="Rectangle-24-Copy-2" fill="#C0C0C0" x="6" y="18" width="88" height="8" rx="4"></rect>
                    <rect id="Rectangle-24-Copy-3" fill="#C0C0C0" x="6" y="30" width="88" height="8" rx="4"></rect>
                    <g id="Group-5" transform="translate(56.000000, 46.000000)">
                        <ellipse id="Oval-1" stroke="#B3B3B3" fill="#EBEBEB" cx="11.9766082" cy="11.9766082" rx="11.9766082" ry="11.9766082"></ellipse>
                        <path d="M8.84923625,14.4319001 L17.0589141,6.22222222 L19.1348678,8.29817591 L9.44708395,17.9859598 L9.38772106,17.9265969 L8.78987336,18.5244446 L3.59998915,13.3345604 L5.67594284,11.2586067 L8.84923625,14.4319001 Z" id="Combined-Shape" fill="#B3B3B3"></path>
                    </g>
                    <g id="Group-5-Copy" transform="translate(20.000000, 46.000000)">
                        <ellipse id="Oval-1" stroke="#B3B3B3" fill="#EBEBEB" cx="11.9766082" cy="11.9766082" rx="11.9766082" ry="11.9766082"></ellipse>
                        <path d="M13.9578225,11.8818688 L17.7637376,15.6877839 L15.6877839,17.7637376 L11.8818688,13.9578225 L8.07595369,17.7637376 L6,15.6877839 L9.80591509,11.8818688 L6,8.07595369 L8.07595369,6 L11.8818688,9.80591509 L15.6877839,6 L17.7637376,8.07595369 L13.9578225,11.8818688 Z" id="Combined-Shape" fill="#B3B3B3"></path>
                    </g>
                </g>
            </g>
        </g>
    </g>
</svg>