<?xml version="1.0" encoding="UTF-8" standalone="no"?>
<svg width="176px" height="65px" viewBox="0 0 176 65" version="1.1" xmlns="http://www.w3.org/2000/svg" xmlns:xlink="http://www.w3.org/1999/xlink">
    <!-- Generator: Sketch 3.8.3 (29802) - http://www.bohemiancoding.com/sketch -->
    <title>Vidyo logo</title>
    <desc>Created with Sketch.</desc>
    <defs></defs>
    <g id="Downloads" stroke="none" stroke-width="1" fill="none" fill-rule="evenodd">
        <g id="Joining-Screen" transform="translate(-424.000000, -64.000000)">
            <g id="Vidyo-logo" transform="translate(424.000000, 64.000000)">
                <g id="Layer_1">
                    <path d="M58.4806916,20.8203125 L58.4806916,43.671875 C58.4806916,45.296875 58.0242075,46.8710937 57.2126801,48.1914062 L29.8236311,31.9414062 L29.8236311,0.45703125 C31.345245,0.45703125 32.8668588,0.86328125 34.2363112,1.625 L54.0172911,13.0507812 C56.8069164,14.7265625 58.4806916,17.6210938 58.4806916,20.8203125 L58.4806916,20.8203125 Z" id="Shape" fill="#9ACA3C"></path>
                    <path d="M57.2634006,48.2421875 C56.5025937,49.5117188 55.437464,50.6289062 54.0680115,51.390625 L34.2870317,62.8164062 C31.5481268,64.390625 28.1498559,64.390625 25.410951,62.8164062 L5.57925072,51.390625 C4.20979827,50.578125 3.09394813,49.4609375 2.33314121,48.140625 L29.8236311,31.9921875 L57.2634006,48.2421875 L57.2634006,48.2421875 Z" id="Shape" fill="#0095DA"></path>
                    <g id="Group" transform="translate(0.000000, 1.015625)">
                        <path d="M29.1135447,0.45703125 L29.1135447,31.9414063 L1.62305476,48.0898438 C0.862247839,46.7695313 0.45648415,45.2460938 0.45648415,43.671875 L0.45648415,20.8203125 C0.45648415,17.671875 2.13025937,14.7265625 4.86916427,13.1523438 L24.7008646,1.7265625 C26.070317,0.86328125 27.5919308,0.45703125 29.1135447,0.45703125 L29.1135447,0.45703125 Z" id="Shape" fill="#FFCB05"></path>
                        <path d="M4.86916427,39.9140625 L5.12276657,35.953125 C5.62997118,29.0976562 11.9700288,28.2851562 11.9700288,24.0703125 C11.9700288,22.75 11.1585014,21.4296875 11.1585014,19.5507812 C11.1585014,17.1640625 12.4772334,14.5234375 14.0495677,13.4570312 L14.0495677,13.4570312 C15.621902,12.390625 16.940634,13.7109375 16.940634,15.84375 C16.940634,17.4179687 16.1291066,20.0585937 16.1291066,21.3789062 C16.1291066,25.8984375 22.4691643,18.9921875 22.9763689,25.59375 L23.2299712,29.3007812 L4.86916427,39.9140625 L4.86916427,39.9140625 Z" id="Shape" fill="#FFFFFF"></path>
                        <path d="M57.8213256,20.8203125 L57.8213256,43.671875 C57.8213256,44.7890625 57.6184438,45.8554688 57.2126801,46.8710938 C57.2126801,44.2304688 55.6910663,42.4023438 55.0317003,41.7421875 C51.9884726,38.6953125 46.0541787,44.1289062 46.0541787,37.78125 C46.0541787,35.3945312 47.3729107,31.1796875 47.3729107,27.9804688 C47.3729107,23.765625 45.2426513,21.3789063 42.9095101,22.953125 C41.7429395,23.6132813 40.5763689,25.1367188 39.7648415,27.015625 C38.9533141,28.8945313 38.395389,31.1289062 38.395389,33.2617188 C38.395389,34.9375 38.8518732,36.4101562 39.1054755,37.8320312 L29.1135447,31.9921875 L29.1135447,0.5078125 C30.6351585,0.5078125 32.1567723,0.9140625 33.5262248,1.67578125 L53.3072046,13.1015625 C56.09683,14.7265625 57.8213256,17.6210938 57.8213256,20.8203125 L57.8213256,20.8203125 Z" id="Shape" fill="#9ACA3C"></path>
                        <path d="M39.714121,41.7421875 C39.714121,49.6640625 30.1786744,49.9179688 29.1642651,62.359375 L29.1642651,63.984375 C27.6426513,63.984375 26.1210375,63.578125 24.751585,62.8164062 L4.91988473,51.390625 C3.55043228,50.578125 2.43458213,49.4609375 1.67377522,48.140625 L29.1135447,31.9921875 L39.054755,37.8828125 C39.1054755,38.0351562 39.1054755,38.1875 39.156196,38.3398438 C39.4605187,39.40625 39.714121,40.7265625 39.714121,41.7421875 L39.714121,41.7421875 Z" id="Shape" fill="#0095DA"></path>
                        <path d="M57.2126801,46.8710937 C57.0605187,47.328125 56.8069164,47.7851562 56.5533141,48.1914062 C55.7925072,49.4609375 54.7273775,50.578125 53.3579251,51.3398437 L33.5769452,62.765625 C32.2074928,63.578125 30.685879,63.9335937 29.1642651,63.9335937 L29.1642651,62.3085937 C30.2293948,49.8671875 39.714121,49.6132812 39.714121,41.6914062 C39.714121,40.625 39.4605187,39.3046875 39.2069164,38.2382812 C39.2069164,38.0859375 39.156196,37.9335938 39.1054755,37.78125 C38.8518732,36.359375 38.395389,34.8867188 38.395389,33.2109375 C38.395389,31.078125 38.9025937,28.84375 39.7648415,26.9648438 C40.5763689,25.0859375 41.692219,23.5625 42.9095101,22.9023438 C45.2933718,21.328125 47.3729107,23.7148438 47.3729107,27.9296875 C47.3729107,31.078125 46.0541787,35.34375 46.0541787,37.7304688 C46.0541787,44.078125 51.9884726,38.6445312 55.0317003,41.6914062 C55.6910663,42.453125 57.2126801,44.28125 57.2126801,46.8710937 L57.2126801,46.8710937 Z" id="Shape" fill="#FFFFFF"></path>
                        <g transform="translate(63.400576, 16.250000)" id="Shape" fill="#000000">
                            <path d="M112.396542,10.96875 C112.396542,12.1367187 111.483573,13.0507812 110.266282,13.0507812 C109.099712,13.0507812 108.136023,12.1367187 108.136023,10.96875 C108.136023,9.80078125 109.099712,8.88671875 110.266282,8.88671875 C111.483573,8.88671875 112.396542,9.80078125 112.396542,10.96875 L112.396542,10.96875 Z M108.693948,10.96875 C108.693948,11.8828125 109.353314,12.59375 110.317003,12.59375 C111.229971,12.59375 111.889337,11.8828125 111.889337,10.96875 C111.889337,10.0546875 111.229971,9.29296875 110.317003,9.29296875 C109.353314,9.29296875 108.693948,10.0546875 108.693948,10.96875 L108.693948,10.96875 Z M109.96196,12.0351562 L109.505476,12.0351562 L109.505476,9.953125 C109.708357,9.90234375 109.96196,9.90234375 110.317003,9.90234375 C110.722767,9.90234375 110.874928,9.953125 111.027089,10.0546875 C111.12853,10.15625 111.229971,10.3085937 111.229971,10.5117188 C111.229971,10.7148438 111.07781,10.9179688 110.824207,10.96875 L110.824207,10.96875 C111.027089,11.0195313 111.12853,11.171875 111.179251,11.4765625 C111.229971,11.78125 111.280692,11.9335938 111.331412,11.984375 L110.824207,11.984375 C110.773487,11.9335938 110.722767,11.7304688 110.672046,11.4765625 C110.621326,11.2734375 110.519885,11.171875 110.266282,11.171875 L110.063401,11.171875 L110.063401,12.0351562 L109.96196,12.0351562 Z M109.96196,10.8671875 L110.164841,10.8671875 C110.418444,10.8671875 110.621326,10.765625 110.621326,10.5625 C110.621326,10.359375 110.469164,10.2578125 110.164841,10.2578125 C110.063401,10.2578125 109.96196,10.2578125 109.911239,10.3085937 L109.911239,10.8671875 L109.96196,10.8671875 Z"></path>
                            <path d="M29.4178674,0.15234375 L22.0126801,0.15234375 C21.7590778,0.15234375 21.5054755,0.40625 21.5054755,0.66015625 L21.5054755,1.7265625 C21.5054755,1.98046875 21.7590778,2.234375 22.0126801,2.234375 L24.6501441,2.234375 C24.1429395,3.30078125 16.9913545,22.8515625 16.4841499,24.7304687 C15.6726225,22.5976562 8.31815562,3.30078125 7.76023055,2.234375 L10.3976945,2.234375 C10.6512968,2.234375 10.9048991,1.98046875 10.9048991,1.7265625 L10.9048991,0.66015625 C10.9048991,0.40625 10.6512968,0.15234375 10.3976945,0.15234375 L0.9129683,0.15234375 C0.659365994,0.15234375 0.405763689,0.40625 0.405763689,0.66015625 L0.405763689,1.7265625 C0.405763689,1.98046875 0.659365994,2.234375 0.9129683,2.234375 L3.29682997,2.234375 C3.55043228,2.7421875 14.6582133,31.5859375 14.6582133,31.5859375 C14.6582133,31.8398437 14.9118156,31.8398437 15.1654179,31.8398437 L16.2305476,31.8398437 C16.4841499,31.8398437 16.4841499,31.8398437 16.7377522,31.5859375 C16.7377522,31.5859375 27.2876081,2.7421875 27.5919308,2.234375 L29.9757925,2.234375 C30.2293948,2.234375 30.4829971,1.98046875 30.4829971,1.7265625 L30.4829971,0.66015625 C29.7221902,0.40625 29.7221902,0.15234375 29.4178674,0.15234375 L29.4178674,0.15234375 Z M38.9533141,29.5039063 L36.5694524,29.5039063 L36.5694524,10.4609375 C36.5694524,10.2070313 36.3158501,9.953125 36.0622478,9.953125 L29.9757925,9.953125 C29.7221902,9.953125 29.4685879,10.2070313 29.4685879,10.4609375 L29.4685879,11.78125 C29.4685879,12.0351563 29.7221902,12.2890625 29.9757925,12.2890625 L32.3596542,12.2890625 L32.3596542,29.7578125 L29.9757925,29.7578125 C29.7221902,29.7578125 29.4685879,30.0117188 29.4685879,30.265625 L29.4685879,31.5859375 C29.4685879,31.8398438 29.7221902,32.09375 29.9757925,32.09375 L38.9533141,32.09375 C39.2069164,32.09375 39.4605187,31.8398438 39.4605187,31.5859375 L39.4605187,29.7578125 C39.2069164,29.5039063 38.9533141,29.5039063 38.9533141,29.5039063 L38.9533141,29.5039063 Z M63.5020173,29.5039062 L61.1181556,29.5039062 L61.1181556,0.66015625 C61.1181556,0.40625 60.8645533,0.15234375 60.610951,0.15234375 L54.5244957,0.15234375 C54.2708934,0.15234375 54.0172911,0.40625 54.0172911,0.66015625 L54.0172911,1.98046875 C54.0172911,2.234375 54.2708934,2.48828125 54.5244957,2.48828125 L56.9083573,2.48828125 L56.9083573,10.15625 L56.9083573,12.5429688 C56.09683,11.7304688 55.0824207,10.96875 54.0172911,10.4101563 C52.9521614,9.90234375 51.6334294,9.59765625 50.5682997,9.59765625 C47.9308357,9.59765625 45.5469741,10.6640625 43.9746398,12.7460938 C42.4023055,14.8789063 41.5907781,17.7734375 41.5907781,21.4804688 C41.5907781,24.6289063 42.4023055,27.3203125 43.7210375,29.1484375 C45.2933718,30.9765625 47.1700288,32.0429688 49.5538905,32.0429688 C51.1262248,32.0429688 52.4449568,31.7890625 53.7636888,30.9765625 C55.0824207,30.1640625 56.1475504,29.1484375 56.9083573,27.828125 L56.9083573,31.28125 C56.9083573,31.5351562 57.1619597,31.7890625 57.415562,31.7890625 L63.5020173,31.7890625 C63.7556196,31.7890625 64.0092219,31.5351562 64.0092219,31.28125 L64.0092219,29.7070312 C64.0599424,29.5039062 63.7556196,29.5039062 63.5020173,29.5039062 L63.5020173,29.5039062 Z M56.9083573,25.4921875 C56.09683,26.5585937 55.0824207,27.625 54.0172911,28.1328125 C52.9521614,28.640625 51.8870317,28.9453125 50.8726225,28.9453125 C49.3002882,28.9453125 47.9815562,28.1328125 47.1700288,26.8125 C46.3585014,25.4921875 45.8512968,23.359375 45.8512968,20.4648438 C45.8512968,17.8242188 46.3585014,15.6914062 47.1700288,14.3710938 C47.9815562,12.796875 49.3002882,12.2382813 50.8726225,12.2382813 C51.9377522,12.2382813 53.0028818,12.4921875 53.7636888,12.7460938 C54.8288184,13.2539063 55.5896254,13.8125 56.654755,14.5742188 L56.654755,25.4414062 L56.9083573,25.4414062 L56.9083573,25.4921875 Z M86.7827089,9.90234375 L80.4426513,9.90234375 C80.189049,9.90234375 79.9354467,10.15625 79.9354467,10.4101563 L79.9354467,11.7304688 C79.9354467,11.984375 80.189049,12.2382813 80.4426513,12.2382813 L82.826513,12.2382813 C82.3193084,13.3046875 76.9936599,24.9335937 76.4864553,26.5078125 C75.9792507,24.9335937 70.9579251,13.3046875 70.4,12.2382813 L72.7838617,12.2382813 C73.037464,12.2382813 73.2910663,11.984375 73.2910663,11.7304688 L73.2910663,10.4101563 C73.2910663,10.15625 73.037464,9.90234375 72.7838617,9.90234375 L64.3135447,9.90234375 C64.0599424,9.90234375 63.8063401,10.15625 63.8063401,10.4101563 L63.8063401,11.7304688 C63.8063401,11.984375 64.0599424,12.2382813 64.3135447,12.2382813 L65.885879,12.2382813 C66.1394813,12.7460938 73.7982709,31.28125 74.0518732,31.5351562 C73.7982709,31.7890625 68.5233429,38.6953125 68.5233429,38.6953125 L68.5233429,38.9492187 C68.5233429,38.9492187 68.5233429,38.9492187 68.5233429,39.203125 C68.5233429,39.4570312 68.7769452,39.4570312 68.7769452,39.4570312 L72.4795389,39.4570312 C72.7331412,39.4570312 72.7331412,39.4570312 72.7331412,39.203125 C72.7331412,39.203125 84.6017291,12.7460938 84.9060519,12.2382813 L86.4783862,12.2382813 C86.7319885,12.2382813 86.9855908,11.984375 86.9855908,11.7304688 L86.9855908,10.4101563 C87.0363112,9.90234375 86.7827089,9.90234375 86.7827089,9.90234375 L86.7827089,9.90234375 Z M104.991354,12.2890625 C103.165418,10.15625 100.477233,9.39453125 97.3325648,9.39453125 C94.1878963,9.39453125 91.4997118,10.4609375 89.6737752,12.2890625 C87.8478386,14.421875 87.0363112,17.0625 87.0363112,20.4648438 C87.0363112,23.8671875 88.1014409,26.8125 89.6737752,28.640625 C91.4997118,30.7734375 94.1878963,31.5351562 97.3325648,31.5351562 C100.477233,31.5351562 103.165418,30.46875 104.991354,28.3867187 C106.817291,26.2539062 107.628818,23.6132812 107.628818,20.2109375 C107.628818,17.0625 106.817291,14.421875 104.991354,12.2890625 L104.991354,12.2890625 Z M101.542363,27.3710937 C100.477233,29.1992187 98.9048991,30.0117187 97.3325648,30.0117187 C95.7602305,30.0117187 94.1878963,29.1992188 93.1227666,27.3710937 C92.0576369,25.5429688 91.5504323,23.4101562 91.5504323,20.7695312 C91.5504323,18.1289062 92.0576369,15.7421875 93.1227666,14.1679688 C94.1878963,12.3398438 95.7602305,11.5273438 97.3325648,11.5273438 C98.9048991,11.5273438 100.477233,12.3398438 101.542363,14.1679688 C102.607493,15.9960938 103.114697,18.1289062 103.114697,20.7695312 C103.41902,23.4101562 102.861095,25.4921875 101.542363,27.3710937 L101.542363,27.3710937 Z M36.5694524,4.11328125 C36.5694524,5.43359375 35.5043228,6.5 34.1855908,6.5 C32.8668588,6.5 31.8017291,5.43359375 31.8017291,4.11328125 C31.8017291,2.79296875 32.8668588,1.7265625 34.1855908,1.7265625 C35.5043228,1.98046875 36.5694524,2.79296875 36.5694524,4.11328125 L36.5694524,4.11328125 Z"></path>
                        </g>
                    </g>
                </g>
            </g>
        </g>
    </g>
</svg>